<mxfile host="app.diagrams.net" agent="Mozilla/5.0 (Windows NT 10.0; Win64; x64) AppleWebKit/537.36 (KHTML, like Gecko) Chrome/136.0.0.0 Safari/537.36 Edg/136.0.0.0" version="27.0.3">
  <diagram name="第 1 页" id="s-FGFVeimVX07Pvcn39X">
    <mxGraphModel dx="2068" dy="1140" grid="0" gridSize="10" guides="1" tooltips="1" connect="1" arrows="1" fold="1" page="1" pageScale="1" pageWidth="1200" pageHeight="1200" background="none" math="0" shadow="0">
      <root>
        <mxCell id="0" />
        <mxCell id="1" parent="0" />
        <mxCell id="DBwA37Q5VYNuFYetnkOz-78" value="" style="rounded=0;whiteSpace=wrap;html=1;dashed=1;" vertex="1" parent="1">
          <mxGeometry x="56" y="65" width="1090" height="1040" as="geometry" />
        </mxCell>
        <mxCell id="DBwA37Q5VYNuFYetnkOz-59" value="" style="rounded=0;whiteSpace=wrap;html=1;dashed=1;" vertex="1" parent="1">
          <mxGeometry x="596" y="645" width="440" height="150" as="geometry" />
        </mxCell>
        <mxCell id="DBwA37Q5VYNuFYetnkOz-17" value="" style="rounded=0;whiteSpace=wrap;html=1;dashed=1;" vertex="1" parent="1">
          <mxGeometry x="646" y="375" width="260" height="170" as="geometry" />
        </mxCell>
        <mxCell id="DBwA37Q5VYNuFYetnkOz-8" style="edgeStyle=orthogonalEdgeStyle;rounded=0;orthogonalLoop=1;jettySize=auto;html=1;entryX=0.5;entryY=0;entryDx=0;entryDy=0;" edge="1" parent="1" source="DBwA37Q5VYNuFYetnkOz-1" target="DBwA37Q5VYNuFYetnkOz-2">
          <mxGeometry relative="1" as="geometry" />
        </mxCell>
        <mxCell id="DBwA37Q5VYNuFYetnkOz-87" style="edgeStyle=orthogonalEdgeStyle;rounded=0;orthogonalLoop=1;jettySize=auto;html=1;" edge="1" parent="1" source="DBwA37Q5VYNuFYetnkOz-1" target="DBwA37Q5VYNuFYetnkOz-85">
          <mxGeometry relative="1" as="geometry" />
        </mxCell>
        <mxCell id="DBwA37Q5VYNuFYetnkOz-88" style="edgeStyle=orthogonalEdgeStyle;rounded=0;orthogonalLoop=1;jettySize=auto;html=1;entryX=0;entryY=0.5;entryDx=0;entryDy=0;" edge="1" parent="1" source="DBwA37Q5VYNuFYetnkOz-1" target="DBwA37Q5VYNuFYetnkOz-81">
          <mxGeometry relative="1" as="geometry">
            <mxPoint x="46" y="985" as="targetPoint" />
            <Array as="points">
              <mxPoint x="86" y="175" />
              <mxPoint x="86" y="985" />
            </Array>
          </mxGeometry>
        </mxCell>
        <mxCell id="DBwA37Q5VYNuFYetnkOz-1" value="显示窗口面板与工具栏" style="rounded=0;whiteSpace=wrap;html=1;" vertex="1" parent="1">
          <mxGeometry x="346" y="155" width="180" height="40" as="geometry" />
        </mxCell>
        <mxCell id="DBwA37Q5VYNuFYetnkOz-11" style="edgeStyle=orthogonalEdgeStyle;rounded=0;orthogonalLoop=1;jettySize=auto;html=1;exitX=1;exitY=0.5;exitDx=0;exitDy=0;entryX=0;entryY=0.5;entryDx=0;entryDy=0;" edge="1" parent="1" source="DBwA37Q5VYNuFYetnkOz-2" target="DBwA37Q5VYNuFYetnkOz-10">
          <mxGeometry relative="1" as="geometry" />
        </mxCell>
        <mxCell id="DBwA37Q5VYNuFYetnkOz-22" value="" style="edgeStyle=orthogonalEdgeStyle;rounded=0;orthogonalLoop=1;jettySize=auto;html=1;" edge="1" parent="1" source="DBwA37Q5VYNuFYetnkOz-2" target="DBwA37Q5VYNuFYetnkOz-21">
          <mxGeometry relative="1" as="geometry" />
        </mxCell>
        <mxCell id="DBwA37Q5VYNuFYetnkOz-2" value="打开图片路径" style="rounded=0;whiteSpace=wrap;html=1;" vertex="1" parent="1">
          <mxGeometry x="376" y="225" width="120" height="40" as="geometry" />
        </mxCell>
        <mxCell id="DBwA37Q5VYNuFYetnkOz-6" style="edgeStyle=orthogonalEdgeStyle;rounded=0;orthogonalLoop=1;jettySize=auto;html=1;exitX=0.5;exitY=1;exitDx=0;exitDy=0;entryX=0.5;entryY=0;entryDx=0;entryDy=0;" edge="1" parent="1" source="DBwA37Q5VYNuFYetnkOz-5" target="DBwA37Q5VYNuFYetnkOz-1">
          <mxGeometry relative="1" as="geometry" />
        </mxCell>
        <mxCell id="DBwA37Q5VYNuFYetnkOz-5" value="开始" style="ellipse;whiteSpace=wrap;html=1;" vertex="1" parent="1">
          <mxGeometry x="376" y="75" width="120" height="50" as="geometry" />
        </mxCell>
        <mxCell id="DBwA37Q5VYNuFYetnkOz-33" style="edgeStyle=orthogonalEdgeStyle;rounded=0;orthogonalLoop=1;jettySize=auto;html=1;" edge="1" parent="1" source="DBwA37Q5VYNuFYetnkOz-10" target="DBwA37Q5VYNuFYetnkOz-29">
          <mxGeometry relative="1" as="geometry" />
        </mxCell>
        <mxCell id="DBwA37Q5VYNuFYetnkOz-10" value="读取图片" style="rounded=0;whiteSpace=wrap;html=1;" vertex="1" parent="1">
          <mxGeometry x="536" y="225" width="120" height="40" as="geometry" />
        </mxCell>
        <mxCell id="DBwA37Q5VYNuFYetnkOz-16" value="" style="edgeStyle=orthogonalEdgeStyle;rounded=0;orthogonalLoop=1;jettySize=auto;html=1;" edge="1" parent="1" source="DBwA37Q5VYNuFYetnkOz-12" target="DBwA37Q5VYNuFYetnkOz-14">
          <mxGeometry relative="1" as="geometry" />
        </mxCell>
        <mxCell id="DBwA37Q5VYNuFYetnkOz-12" value="转为灰度图并计算gradient" style="rounded=0;whiteSpace=wrap;html=1;" vertex="1" parent="1">
          <mxGeometry x="668" y="405" width="200" height="40" as="geometry" />
        </mxCell>
        <mxCell id="DBwA37Q5VYNuFYetnkOz-14" value="根据gradient计算cost矩阵" style="rounded=0;whiteSpace=wrap;html=1;" vertex="1" parent="1">
          <mxGeometry x="668" y="495" width="200" height="40" as="geometry" />
        </mxCell>
        <mxCell id="DBwA37Q5VYNuFYetnkOz-58" style="edgeStyle=orthogonalEdgeStyle;rounded=0;orthogonalLoop=1;jettySize=auto;html=1;entryX=0.5;entryY=0;entryDx=0;entryDy=0;" edge="1" parent="1" source="DBwA37Q5VYNuFYetnkOz-14" target="DBwA37Q5VYNuFYetnkOz-41">
          <mxGeometry relative="1" as="geometry" />
        </mxCell>
        <mxCell id="DBwA37Q5VYNuFYetnkOz-20" value="&lt;div style=&quot;background-color: rgb(255, 255, 255); color: rgb(8, 8, 8);&quot;&gt;&lt;pre style=&quot;&quot;&gt;&lt;font style=&quot;font-size: 17px;&quot; face=&quot;Helvetica&quot;&gt;&lt;b style=&quot;&quot;&gt;IntelligentScissors&lt;/b&gt;&lt;/font&gt;&lt;font color=&quot;rgba(0, 0, 0, 0)&quot;&gt;&lt;/font&gt;&lt;/pre&gt;&lt;/div&gt;" style="text;html=1;align=center;verticalAlign=middle;whiteSpace=wrap;rounded=0;" vertex="1" parent="1">
          <mxGeometry x="346" y="25" width="180" height="40" as="geometry" />
        </mxCell>
        <mxCell id="DBwA37Q5VYNuFYetnkOz-34" style="edgeStyle=orthogonalEdgeStyle;rounded=0;orthogonalLoop=1;jettySize=auto;html=1;" edge="1" parent="1" source="DBwA37Q5VYNuFYetnkOz-21" target="DBwA37Q5VYNuFYetnkOz-23">
          <mxGeometry relative="1" as="geometry" />
        </mxCell>
        <mxCell id="DBwA37Q5VYNuFYetnkOz-35" style="edgeStyle=orthogonalEdgeStyle;rounded=0;orthogonalLoop=1;jettySize=auto;html=1;" edge="1" parent="1" source="DBwA37Q5VYNuFYetnkOz-21" target="DBwA37Q5VYNuFYetnkOz-24">
          <mxGeometry relative="1" as="geometry" />
        </mxCell>
        <mxCell id="DBwA37Q5VYNuFYetnkOz-21" value="显示图片并监听鼠标事件" style="rounded=0;whiteSpace=wrap;html=1;" vertex="1" parent="1">
          <mxGeometry x="316" y="295" width="240" height="40" as="geometry" />
        </mxCell>
        <mxCell id="DBwA37Q5VYNuFYetnkOz-45" style="edgeStyle=orthogonalEdgeStyle;rounded=0;orthogonalLoop=1;jettySize=auto;html=1;exitX=0.5;exitY=1;exitDx=0;exitDy=0;" edge="1" parent="1" source="DBwA37Q5VYNuFYetnkOz-23" target="DBwA37Q5VYNuFYetnkOz-44">
          <mxGeometry relative="1" as="geometry" />
        </mxCell>
        <mxCell id="DBwA37Q5VYNuFYetnkOz-72" style="edgeStyle=orthogonalEdgeStyle;rounded=0;orthogonalLoop=1;jettySize=auto;html=1;" edge="1" parent="1" source="DBwA37Q5VYNuFYetnkOz-23" target="DBwA37Q5VYNuFYetnkOz-43">
          <mxGeometry relative="1" as="geometry" />
        </mxCell>
        <mxCell id="DBwA37Q5VYNuFYetnkOz-23" value="鼠标移动事件" style="rounded=0;whiteSpace=wrap;html=1;" vertex="1" parent="1">
          <mxGeometry x="296" y="381" width="120" height="40" as="geometry" />
        </mxCell>
        <mxCell id="DBwA37Q5VYNuFYetnkOz-46" style="edgeStyle=orthogonalEdgeStyle;rounded=0;orthogonalLoop=1;jettySize=auto;html=1;" edge="1" parent="1" source="DBwA37Q5VYNuFYetnkOz-24" target="DBwA37Q5VYNuFYetnkOz-44">
          <mxGeometry relative="1" as="geometry" />
        </mxCell>
        <mxCell id="DBwA37Q5VYNuFYetnkOz-24" value="鼠标点击事件" style="rounded=0;whiteSpace=wrap;html=1;" vertex="1" parent="1">
          <mxGeometry x="467" y="381" width="120" height="40" as="geometry" />
        </mxCell>
        <mxCell id="DBwA37Q5VYNuFYetnkOz-25" value="&lt;font style=&quot;font-size: 15px;&quot;&gt;&lt;b style=&quot;&quot;&gt;ImageProcessor&lt;/b&gt;&lt;/font&gt;" style="text;html=1;align=center;verticalAlign=middle;whiteSpace=wrap;rounded=0;" vertex="1" parent="1">
          <mxGeometry x="656" y="345" width="100" height="30" as="geometry" />
        </mxCell>
        <mxCell id="DBwA37Q5VYNuFYetnkOz-32" style="edgeStyle=orthogonalEdgeStyle;rounded=0;orthogonalLoop=1;jettySize=auto;html=1;" edge="1" parent="1" source="DBwA37Q5VYNuFYetnkOz-29" target="DBwA37Q5VYNuFYetnkOz-12">
          <mxGeometry relative="1" as="geometry" />
        </mxCell>
        <mxCell id="DBwA37Q5VYNuFYetnkOz-56" style="edgeStyle=orthogonalEdgeStyle;rounded=0;orthogonalLoop=1;jettySize=auto;html=1;" edge="1" parent="1" source="DBwA37Q5VYNuFYetnkOz-29" target="DBwA37Q5VYNuFYetnkOz-55">
          <mxGeometry relative="1" as="geometry" />
        </mxCell>
        <mxCell id="DBwA37Q5VYNuFYetnkOz-29" value="图片预处理（缩放）" style="rounded=0;whiteSpace=wrap;html=1;" vertex="1" parent="1">
          <mxGeometry x="693" y="225" width="150" height="40" as="geometry" />
        </mxCell>
        <mxCell id="DBwA37Q5VYNuFYetnkOz-84" style="edgeStyle=orthogonalEdgeStyle;rounded=0;orthogonalLoop=1;jettySize=auto;html=1;" edge="1" parent="1" source="DBwA37Q5VYNuFYetnkOz-36" target="DBwA37Q5VYNuFYetnkOz-81">
          <mxGeometry relative="1" as="geometry" />
        </mxCell>
        <mxCell id="DBwA37Q5VYNuFYetnkOz-36" value="鼠标点击确定seed point并&lt;div&gt;固定当前路径（红色）&lt;/div&gt;" style="rounded=0;whiteSpace=wrap;html=1;" vertex="1" parent="1">
          <mxGeometry x="486" y="825" width="158" height="62" as="geometry" />
        </mxCell>
        <mxCell id="DBwA37Q5VYNuFYetnkOz-83" style="edgeStyle=orthogonalEdgeStyle;rounded=0;orthogonalLoop=1;jettySize=auto;html=1;" edge="1" parent="1" source="DBwA37Q5VYNuFYetnkOz-38" target="DBwA37Q5VYNuFYetnkOz-81">
          <mxGeometry relative="1" as="geometry" />
        </mxCell>
        <mxCell id="DBwA37Q5VYNuFYetnkOz-38" value="鼠标移动实时显示&lt;div&gt;当前位置&lt;span style=&quot;background-color: transparent; color: light-dark(rgb(0, 0, 0), rgb(255, 255, 255));&quot;&gt;到seed point&lt;/span&gt;&lt;/div&gt;&lt;div&gt;&lt;span style=&quot;background-color: transparent; color: light-dark(rgb(0, 0, 0), rgb(255, 255, 255));&quot;&gt;的最优路径&lt;/span&gt;&lt;span style=&quot;background-color: transparent; color: light-dark(rgb(0, 0, 0), rgb(255, 255, 255));&quot;&gt;（绿色）&lt;/span&gt;&lt;/div&gt;" style="rounded=0;whiteSpace=wrap;html=1;" vertex="1" parent="1">
          <mxGeometry x="296" y="825" width="155" height="70" as="geometry" />
        </mxCell>
        <mxCell id="DBwA37Q5VYNuFYetnkOz-65" style="edgeStyle=orthogonalEdgeStyle;rounded=0;orthogonalLoop=1;jettySize=auto;html=1;" edge="1" parent="1" source="DBwA37Q5VYNuFYetnkOz-41" target="DBwA37Q5VYNuFYetnkOz-63">
          <mxGeometry relative="1" as="geometry" />
        </mxCell>
        <mxCell id="DBwA37Q5VYNuFYetnkOz-41" value="Dijkstra算法" style="rounded=0;whiteSpace=wrap;html=1;" vertex="1" parent="1">
          <mxGeometry x="668" y="715" width="200" height="40" as="geometry" />
        </mxCell>
        <mxCell id="DBwA37Q5VYNuFYetnkOz-42" value="&lt;div&gt;定义类&lt;/div&gt;Node{&lt;div&gt;x,y&lt;/div&gt;&lt;div&gt;distance&lt;span style=&quot;background-color: transparent; color: light-dark(rgb(0, 0, 0), rgb(255, 255, 255));&quot;&gt;}&lt;/span&gt;&lt;/div&gt;" style="rounded=1;whiteSpace=wrap;html=1;" vertex="1" parent="1">
          <mxGeometry x="906" y="660" width="110" height="100" as="geometry" />
        </mxCell>
        <mxCell id="DBwA37Q5VYNuFYetnkOz-75" value="" style="edgeStyle=orthogonalEdgeStyle;rounded=0;orthogonalLoop=1;jettySize=auto;html=1;" edge="1" parent="1" source="DBwA37Q5VYNuFYetnkOz-43" target="DBwA37Q5VYNuFYetnkOz-74">
          <mxGeometry relative="1" as="geometry" />
        </mxCell>
        <mxCell id="DBwA37Q5VYNuFYetnkOz-43" value="Path Cooling&lt;div&gt;对重复走的路径进行检查&lt;/div&gt;" style="rounded=0;whiteSpace=wrap;html=1;" vertex="1" parent="1">
          <mxGeometry x="96" y="470" width="180" height="60" as="geometry" />
        </mxCell>
        <mxCell id="DBwA37Q5VYNuFYetnkOz-51" style="edgeStyle=orthogonalEdgeStyle;rounded=0;orthogonalLoop=1;jettySize=auto;html=1;" edge="1" parent="1" source="DBwA37Q5VYNuFYetnkOz-44" target="DBwA37Q5VYNuFYetnkOz-48">
          <mxGeometry relative="1" as="geometry" />
        </mxCell>
        <mxCell id="DBwA37Q5VYNuFYetnkOz-44" value="Cursor Snap&lt;div&gt;寻找鼠标邻域7格内最大gradients的位置&lt;/div&gt;" style="rounded=0;whiteSpace=wrap;html=1;" vertex="1" parent="1">
          <mxGeometry x="296" y="465" width="280" height="70" as="geometry" />
        </mxCell>
        <mxCell id="DBwA37Q5VYNuFYetnkOz-64" value="" style="edgeStyle=orthogonalEdgeStyle;rounded=0;orthogonalLoop=1;jettySize=auto;html=1;" edge="1" parent="1" source="DBwA37Q5VYNuFYetnkOz-48" target="DBwA37Q5VYNuFYetnkOz-63">
          <mxGeometry relative="1" as="geometry" />
        </mxCell>
        <mxCell id="DBwA37Q5VYNuFYetnkOz-76" style="edgeStyle=orthogonalEdgeStyle;rounded=0;orthogonalLoop=1;jettySize=auto;html=1;" edge="1" parent="1" source="DBwA37Q5VYNuFYetnkOz-48" target="DBwA37Q5VYNuFYetnkOz-74">
          <mxGeometry relative="1" as="geometry" />
        </mxCell>
        <mxCell id="DBwA37Q5VYNuFYetnkOz-48" value="坐标转换" style="rounded=0;whiteSpace=wrap;html=1;" vertex="1" parent="1">
          <mxGeometry x="361" y="575" width="150" height="40" as="geometry" />
        </mxCell>
        <mxCell id="DBwA37Q5VYNuFYetnkOz-70" style="edgeStyle=orthogonalEdgeStyle;rounded=0;orthogonalLoop=1;jettySize=auto;html=1;entryX=1;entryY=0.5;entryDx=0;entryDy=0;" edge="1" parent="1" source="DBwA37Q5VYNuFYetnkOz-55" target="DBwA37Q5VYNuFYetnkOz-48">
          <mxGeometry relative="1" as="geometry" />
        </mxCell>
        <mxCell id="DBwA37Q5VYNuFYetnkOz-55" value="根据图片大小缩放至&lt;div&gt;大约600*800&amp;nbsp;&lt;span style=&quot;background-color: transparent; color: light-dark(rgb(0, 0, 0), rgb(255, 255, 255));&quot;&gt;得到缩放比&lt;/span&gt;&lt;/div&gt;" style="rounded=0;whiteSpace=wrap;html=1;" vertex="1" parent="1">
          <mxGeometry x="886" y="560" width="240" height="70" as="geometry" />
        </mxCell>
        <mxCell id="DBwA37Q5VYNuFYetnkOz-66" style="edgeStyle=orthogonalEdgeStyle;rounded=0;orthogonalLoop=1;jettySize=auto;html=1;" edge="1" parent="1" source="DBwA37Q5VYNuFYetnkOz-63" target="DBwA37Q5VYNuFYetnkOz-38">
          <mxGeometry relative="1" as="geometry" />
        </mxCell>
        <mxCell id="DBwA37Q5VYNuFYetnkOz-67" style="edgeStyle=orthogonalEdgeStyle;rounded=0;orthogonalLoop=1;jettySize=auto;html=1;" edge="1" parent="1" source="DBwA37Q5VYNuFYetnkOz-63" target="DBwA37Q5VYNuFYetnkOz-36">
          <mxGeometry relative="1" as="geometry" />
        </mxCell>
        <mxCell id="DBwA37Q5VYNuFYetnkOz-77" style="edgeStyle=orthogonalEdgeStyle;rounded=0;orthogonalLoop=1;jettySize=auto;html=1;" edge="1" parent="1" source="DBwA37Q5VYNuFYetnkOz-63" target="DBwA37Q5VYNuFYetnkOz-74">
          <mxGeometry relative="1" as="geometry" />
        </mxCell>
        <mxCell id="DBwA37Q5VYNuFYetnkOz-63" value="利用回溯进行路径重建" style="rounded=0;whiteSpace=wrap;html=1;" vertex="1" parent="1">
          <mxGeometry x="336" y="715" width="200" height="40" as="geometry" />
        </mxCell>
        <mxCell id="DBwA37Q5VYNuFYetnkOz-71" value="&lt;font style=&quot;font-size: 15px;&quot;&gt;&lt;b&gt;Dijkstra&lt;/b&gt;&lt;/font&gt;" style="text;html=1;align=center;verticalAlign=middle;whiteSpace=wrap;rounded=0;" vertex="1" parent="1">
          <mxGeometry x="576" y="615" width="100" height="30" as="geometry" />
        </mxCell>
        <mxCell id="DBwA37Q5VYNuFYetnkOz-82" style="edgeStyle=orthogonalEdgeStyle;rounded=0;orthogonalLoop=1;jettySize=auto;html=1;" edge="1" parent="1" source="DBwA37Q5VYNuFYetnkOz-74" target="DBwA37Q5VYNuFYetnkOz-81">
          <mxGeometry relative="1" as="geometry" />
        </mxCell>
        <mxCell id="DBwA37Q5VYNuFYetnkOz-74" value="确定seed point并&lt;div&gt;固定当前路径（红色）&lt;/div&gt;" style="rounded=0;whiteSpace=wrap;html=1;" vertex="1" parent="1">
          <mxGeometry x="111" y="827" width="150" height="60" as="geometry" />
        </mxCell>
        <mxCell id="DBwA37Q5VYNuFYetnkOz-80" value="坐标转换" style="rounded=0;whiteSpace=wrap;html=1;" vertex="1" parent="1">
          <mxGeometry x="361" y="575" width="150" height="40" as="geometry" />
        </mxCell>
        <mxCell id="DBwA37Q5VYNuFYetnkOz-90" style="edgeStyle=orthogonalEdgeStyle;rounded=0;orthogonalLoop=1;jettySize=auto;html=1;" edge="1" parent="1" source="DBwA37Q5VYNuFYetnkOz-81" target="DBwA37Q5VYNuFYetnkOz-89">
          <mxGeometry relative="1" as="geometry" />
        </mxCell>
        <mxCell id="DBwA37Q5VYNuFYetnkOz-81" value="收集所有固定路径，进行闭合检查，切割框选区域导出" style="rounded=0;whiteSpace=wrap;html=1;" vertex="1" parent="1">
          <mxGeometry x="133.5" y="965" width="480" height="40" as="geometry" />
        </mxCell>
        <mxCell id="DBwA37Q5VYNuFYetnkOz-86" style="edgeStyle=orthogonalEdgeStyle;rounded=0;orthogonalLoop=1;jettySize=auto;html=1;" edge="1" parent="1" source="DBwA37Q5VYNuFYetnkOz-85" target="DBwA37Q5VYNuFYetnkOz-21">
          <mxGeometry relative="1" as="geometry" />
        </mxCell>
        <mxCell id="DBwA37Q5VYNuFYetnkOz-85" value="清除路径" style="rounded=0;whiteSpace=wrap;html=1;" vertex="1" parent="1">
          <mxGeometry x="133.5" y="295" width="125" height="40" as="geometry" />
        </mxCell>
        <mxCell id="DBwA37Q5VYNuFYetnkOz-89" value="结束" style="ellipse;whiteSpace=wrap;html=1;" vertex="1" parent="1">
          <mxGeometry x="313.5" y="1035" width="120" height="50" as="geometry" />
        </mxCell>
      </root>
    </mxGraphModel>
  </diagram>
</mxfile>
